HIERARCHY
ROOT Hips
{
	OFFSET 0.000000 8.830580 0.000000
	CHANNELS 6 Xposition Yposition Zposition Zrotation Yrotation Xrotation 
	JOINT Spine
	{
		OFFSET 0.000000 0.010000 0.000000
		CHANNELS 3 Zrotation Yrotation Xrotation
		JOINT Spine1
		{
			OFFSET 0.000000 2.459130 0.000000
			CHANNELS 3 Zrotation Yrotation Xrotation
			JOINT Neck
			{
				OFFSET 0.000000 2.484630 0.000000
				CHANNELS 3 Zrotation Yrotation Xrotation
				JOINT Head_virtual
				{
					OFFSET 0.000000 0.000000 0.000000
					CHANNELS 3 Zrotation Yrotation Xrotation
					JOINT Head
					{
						OFFSET 0.000000 0.927525 0.000000
						CHANNELS 3 Zrotation Yrotation Xrotation
						End Site
						{
							OFFSET 0.000000 0.000000 0.000000
						}
					}
				}
				JOINT LeftUpArm_virtual
				{
					OFFSET 0.000000 0.000000 0.000000
					CHANNELS 3 Zrotation Yrotation Xrotation
					JOINT LeftUpArm
					{
						OFFSET 1.248820 0.000000 0.000000
						CHANNELS 3 Zrotation Yrotation Xrotation
						JOINT LeftForeArm
						{
							OFFSET 2.597580 0.000000 0.000000
							CHANNELS 3 Zrotation Yrotation Xrotation
							JOINT LeftHand
							{
								OFFSET 2.455420 0.000000 0.000000
								CHANNELS 3 Zrotation Yrotation Xrotation
								End Site
								{
									OFFSET 0.000000 0.000000 0.000000
								}
							}
						}
					}
				}
				JOINT RightUpArm_virtual
				{
					OFFSET -0.000000 -0.000000 -0.000000
					CHANNELS 3 Zrotation Yrotation Xrotation
					JOINT RightUpArm
					{
						OFFSET -1.248820 -0.000000 -0.000000
						CHANNELS 3 Zrotation Yrotation Xrotation
						JOINT RightForeArm
						{
							OFFSET -2.597580 -0.000000 -0.000000
							CHANNELS 3 Zrotation Yrotation Xrotation
							JOINT RightHand
							{
								OFFSET -2.455420 -0.000000 -0.000000
								CHANNELS 3 Zrotation Yrotation Xrotation
								End Site
								{
									OFFSET 0.000000 0.000000 0.000000
								}
							}
						}
					}
				}
			}
		}
	}
	JOINT LeftUpLeg
	{
		OFFSET 1.271939 0.000000 0.000000
		CHANNELS 3 Zrotation Yrotation Xrotation
		JOINT LeftLowLeg
		{
			OFFSET 0.000000 -4.342910 0.000000
			CHANNELS 3 Zrotation Yrotation Xrotation
			JOINT LeftFoot
			{
				OFFSET 0.000000 -4.487670 0.000000
				CHANNELS 3 Zrotation Yrotation Xrotation
				JOINT LeftToeBase
				{
					OFFSET 0.000000 0.000000 1.515070
					CHANNELS 3 Zrotation Yrotation Xrotation
					End Site
					{
						OFFSET 0.000000 0.000000 0.000000
					}
				}
			}
		}
	}
	JOINT RightUpLeg
	{
		OFFSET -1.271939 0.000000 0.000000
		CHANNELS 3 Zrotation Yrotation Xrotation
		JOINT RightLowLeg
		{
			OFFSET 0.000000 -4.342910 0.000000
			CHANNELS 3 Zrotation Yrotation Xrotation
			JOINT RightFoot
			{
				OFFSET 0.000000 -4.487670 0.000000
				CHANNELS 3 Zrotation Yrotation Xrotation
				JOINT RightToeBase
				{
					OFFSET 0.000000 0.000000 1.515070
					CHANNELS 3 Zrotation Yrotation Xrotation
					End Site
					{
						OFFSET 0.000000 0.000000 0.000000
					}
				}
			}
		}
	}
}
MOTION
Frames: 5
Frame Time: 0.041667
-19.375271 9.187068 29.230537 179.393320 9.846161 -176.885327 -1.880487 5.155397 -14.956107 0.450126 -6.677301 20.969074 0.000000 0.000000 0.000000 9.137292 -5.931701 7.264831 4.365121 -9.435605 -89.164403 -27.508600 2.680910 6.897003 -42.680302 -4.744750 4.789110 -180.000000 -69.567001 180.000000 43.631199 12.740200 23.481199 28.144600 -0.441105 5.651001 36.897999 24.205000 -6.261993 180.000000 32.550995 180.000000 -15.351000 -12.885000 -34.320499 -3.101941 -4.647008 -6.912213 0.000000 0.000000 19.542801 -21.593806 7.028845 -9.269168 0.000000 0.000000 -16.275380 0.187879 23.855299 -10.606117 0.000000 0.000000 23.351500 27.777665 -0.085044 -7.876609 0.000000 0.000000 -17.478480 
-19.380239 9.187124 29.231395 179.396653 9.981819 -177.010484 -1.866203 5.322476 -14.911575 0.243671 -6.616167 20.909914 0.000000 0.000000 0.000000 9.698461 -6.122979 7.630562 4.124293 -9.188359 -89.069015 -27.344000 2.660370 7.029999 -42.781601 -4.844160 4.994240 -180.000000 -69.317001 180.000000 43.445099 12.618600 23.658899 28.191700 -0.393446 5.777008 37.112598 25.073900 -6.667999 -180.000000 32.481995 -180.000000 -12.783500 -9.056840 -34.876099 -3.149787 -4.585822 -6.781210 0.000000 0.000000 19.542601 -21.558011 7.116507 -9.298361 0.000000 0.000000 -16.285240 0.188234 23.897749 -10.546905 0.000000 0.000000 23.434601 27.784696 0.016790 -7.815800 0.000000 0.000000 -17.485500 
-19.385342 9.187355 29.232243 179.395451 10.086120 -177.162850 -1.908653 5.424709 -14.917753 0.158422 -6.533730 20.979327 0.000000 0.000000 0.000000 10.174953 -6.332402 7.851987 3.919120 -9.004108 -89.012057 -27.248699 2.627520 7.076996 -42.789001 -4.959420 5.200830 180.000000 -69.089996 -180.000000 43.115299 12.570900 23.574400 28.179100 -0.393432 5.774994 37.354900 25.774099 -6.808990 180.000000 32.567001 180.000000 -10.355500 -5.203800 -35.242500 -3.199312 -4.491515 -6.631106 0.000000 0.000000 19.543400 -21.532788 7.141222 -9.291811 0.000000 0.000000 -16.304060 0.203174 23.947037 -10.454130 0.000000 0.000000 23.518801 27.755734 0.052475 -7.775903 0.000000 0.000000 -17.510090 
-19.391750 9.187162 29.232918 179.380285 10.148469 -177.325868 -1.922874 5.506408 -14.907676 0.047831 -6.494035 21.069667 0.000000 0.000000 0.000000 10.424508 -6.373138 8.028231 3.816925 -8.858215 -88.967558 -27.175100 2.656720 6.993011 -42.808102 -4.996970 5.484230 180.000000 -68.894997 180.000000 42.910400 12.388900 23.757000 28.204599 -0.263157 5.816986 37.387699 26.299500 -6.255005 -180.000000 32.087997 -180.000000 -10.704400 -5.700970 -34.205399 -3.271263 -4.448672 -6.473235 0.000000 0.000000 19.537300 -21.491902 7.191496 -9.292239 0.000000 0.000000 -16.316310 0.206046 23.999571 -10.350857 0.000000 0.000000 23.616501 27.768010 0.076721 -7.785608 0.000000 0.000000 -17.511270 
-19.400462 9.187068 29.234325 179.360002 10.186290 -177.466635 -1.886527 5.658781 -14.855952 -0.157467 -6.458439 21.104473 0.000000 0.000000 0.000000 10.753038 -6.457058 8.134187 3.649498 -8.673408 -88.952932 -27.086100 2.645420 7.031006 -42.815102 -5.076320 5.652490 180.000000 -68.668999 -180.000000 42.548599 12.257500 23.159500 28.197800 -0.212589 5.726013 37.700298 26.545099 -6.037994 -180.000000 32.100006 -180.000000 -9.489400 -4.783790 -34.731800 -3.357710 -4.394255 -6.350765 0.000000 0.000000 19.530500 -21.412173 7.236336 -9.272095 0.000000 0.000000 -16.314040 0.183252 23.981579 -10.303927 0.000000 0.000000 23.766199 27.814997 0.143854 -7.798725 0.000000 0.000000 -17.549210 
